# xmcd
#
# Track frame offsets: 
#        150
#        12853
#        34682
#        50165
#
# Disc length: 821 seconds
#
# Revision: 0
# Processed by: cddbd v1.5.2PL0 Copyright (c) Steve Scherf et al.
# Submitted via: ExactAudioCopyFreeDBPlugin 1.0
#
DISCID=2b033304
DTITLE=Shonna Tucker and Eye Candy - Rough Trade Bonus Disc
DYEAR=2014
DGENRE=Country
TTITLE0=Hey Tonight
TTITLE1=Strawberry Wine
TTITLE2=You Better Believe It Baby
TTITLE3=Lonely Women Make Good Lovers
EXTD=
EXTT0=
EXTT1=
EXTT2=
EXTT3=
PLAYORDER=
